<svg width="423" height="297" viewBox="0 0 423 297" fill="none" xmlns="http://www.w3.org/2000/svg">
<path d="M94.3741 218.539C97.352 218.877 100.082 219.509 102.58 220.344V220.338C102.614 220.349 102.654 220.36 102.687 220.377C102.783 220.411 102.885 220.445 102.981 220.479C117.87 225.792 124.712 224.793 130.566 223C146.381 218.144 155.754 197.236 181.365 201.28C192.228 202.995 200.97 205.33 207.778 210.079C207.778 210.073 207.766 210.056 207.766 210.056C207.811 210.096 207.862 210.129 207.907 210.169C208.883 210.857 209.836 211.551 210.739 212.267C224.06 220.964 237.326 209.628 241.138 207.061C241.42 206.858 241.708 205.245 241.995 205.042C242.148 204.929 242.232 204.862 242.232 204.862V204.873C258.921 193.108 285.469 181.196 311.063 184.118C355.032 189.143 372.731 239.012 372.731 239.012H229.43H217.732H126.635H106.534H44.1443C49.2767 227.236 69.8119 215.73 94.3741 218.539Z" fill="#421F91"/>
<path d="M61.0304 91.7233H86.935C87.5384 91.7233 88.0291 91.2327 88.0291 90.6292V83.4269C88.0291 82.8234 87.5384 82.3327 86.935 82.3327H61.0304C60.427 82.3327 59.9363 82.8234 59.9363 83.4269V90.6292C59.9363 91.2383 60.427 91.7233 61.0304 91.7233Z" fill="#8155FF"/>
<path d="M65.4353 85.9818H83.8386" stroke="white" stroke-width="0.6238" stroke-miterlimit="10"/>
<path d="M65.4353 88.0799H70.8553" stroke="white" stroke-width="0.6238" stroke-miterlimit="10"/>
<path d="M84.6846 90.4769V94.7182L79.2702 90.4769H84.6846Z" fill="#8155FF"/>
<path d="M364.852 136.212C366.59 136.212 367.999 134.782 367.999 133.019C367.999 131.256 366.59 129.827 364.852 129.827C363.114 129.827 361.704 131.256 361.704 133.019C361.704 134.782 363.114 136.212 364.852 136.212Z" stroke="white" stroke-width="1.0888" stroke-miterlimit="10"/>
<path d="M48.2953 157.694C50.7779 157.694 52.7904 155.654 52.7904 153.137C52.7904 150.62 50.7779 148.58 48.2953 148.58C45.8127 148.58 43.8002 150.62 43.8002 153.137C43.8002 155.654 45.8127 157.694 48.2953 157.694Z" stroke="white" stroke-width="1.0888" stroke-miterlimit="10"/>
<path d="M219.385 58.1597C219.385 59.1185 218.618 59.8968 217.67 59.8968C216.723 59.8968 215.956 59.1185 215.956 58.1597C215.956 57.2009 216.723 56.4226 217.67 56.4226C218.618 56.4226 219.385 57.2009 219.385 58.1597Z" stroke="white" stroke-width="1.0888" stroke-miterlimit="10"/>
<path d="M71.9664 48.8368H145.332C145.332 48.8368 144.976 45.9209 136.826 43.5916C128.677 41.2623 122.828 47.235 113.612 43.5916C104.396 39.9481 99.5122 34.7255 87.6343 37.6357C75.7621 40.5516 71.9664 48.8368 71.9664 48.8368Z" stroke="#FAFAFA" stroke-width="1.103" stroke-miterlimit="10" stroke-linecap="round" stroke-linejoin="round"/>
<path d="M304.532 74.5665H342.472C342.472 74.5665 342.292 72.7334 338.073 71.267C333.86 69.8006 330.831 73.5569 326.065 71.267C321.3 68.9772 318.773 65.6891 312.631 67.5221C306.495 69.3551 304.532 74.5665 304.532 74.5665Z" stroke="#FAFAFA" stroke-width="1.103" stroke-miterlimit="10" stroke-linecap="round" stroke-linejoin="round"/>
<path d="M284.429 39.0342C285.522 32.2531 280.91 25.8701 274.129 24.7773C267.348 23.6846 260.965 28.2959 259.873 35.077C258.78 41.8581 263.391 48.2411 270.172 49.3339C276.953 50.4266 283.336 45.8153 284.429 39.0342Z" fill="#421F91"/>
<path d="M265.238 108.852H136.138V238.363H265.238V108.852Z" fill="white"/>
<path d="M265.238 88.4803V108.852H136.138V88.4803C136.138 84.4308 139.421 81.154 143.465 81.154H257.912C261.955 81.154 265.238 84.4308 265.238 88.4803Z" fill="#8155FF"/>
<path d="M245.227 99.8731C248.582 99.8731 251.301 97.1536 251.301 93.7988C251.301 90.4441 248.582 87.7245 245.227 87.7245C241.872 87.7245 239.153 90.4441 239.153 93.7988C239.153 97.1536 241.872 99.8731 245.227 99.8731Z" fill="#2B4183"/>
<path d="M245.227 96.083C247.15 96.083 248.707 94.5264 248.707 92.6032V76.8788C248.707 74.9556 247.15 73.399 245.227 73.399C243.304 73.399 241.747 74.9556 241.747 76.8788V92.6032C241.747 94.5264 243.304 96.083 245.227 96.083Z" fill="#FFCB2D"/>
<path d="M202.363 99.8731C205.718 99.8731 208.437 97.1536 208.437 93.7988C208.437 90.4441 205.718 87.7245 202.363 87.7245C199.008 87.7245 196.289 90.4441 196.289 93.7988C196.289 97.1536 199.008 99.8731 202.363 99.8731Z" fill="#2B4183"/>
<path d="M202.363 96.083C204.286 96.083 205.843 94.5264 205.843 92.6032V76.8788C205.843 74.9556 204.286 73.399 202.363 73.399C200.44 73.399 198.883 74.9556 198.883 76.8788V92.6032C198.883 94.5264 200.446 96.083 202.363 96.083Z" fill="#FFCB2D"/>
<path d="M159.505 99.8731C162.86 99.8731 165.579 97.1536 165.579 93.7988C165.579 90.4441 162.86 87.7245 159.505 87.7245C156.15 87.7245 153.431 90.4441 153.431 93.7988C153.431 97.1536 156.15 99.8731 159.505 99.8731Z" fill="#2B4183"/>
<path d="M159.505 96.083C161.428 96.083 162.985 94.5264 162.985 92.6032V76.8788C162.985 74.9556 161.428 73.399 159.505 73.399C157.582 73.399 156.025 74.9556 156.025 76.8788V92.6032C156.019 94.5264 157.582 96.083 159.505 96.083Z" fill="#FFCB2D"/>
<path d="M221.614 154.214H246.159V129.669H221.614V154.214Z" stroke="#F0E0DF" stroke-width="2.2132" stroke-miterlimit="10"/>
<path d="M188.957 154.214H213.502V129.669H188.957V154.214Z" stroke="#F0E0DF" stroke-width="2.2132" stroke-miterlimit="10"/>
<path d="M156.295 154.214H180.84V129.669H156.295V154.214Z" stroke="#F0E0DF" stroke-width="2.2132" stroke-miterlimit="10"/>
<path d="M221.614 185.372H246.159V160.827H221.614V185.372Z" stroke="#F0E0DF" stroke-width="2.2132" stroke-miterlimit="10"/>
<path d="M188.957 185.372H213.502V160.827H188.957V185.372Z" stroke="#F0E0DF" stroke-width="2.2132" stroke-miterlimit="10"/>
<path d="M156.295 185.372H180.84V160.827H156.295V185.372Z" fill="#F88AA0"/>
<path d="M165.167 169.589L171.969 176.605" stroke="white" stroke-width="2.0174" stroke-miterlimit="10"/>
<path d="M171.969 169.589L165.167 176.605" stroke="white" stroke-width="2.0174" stroke-miterlimit="10"/>
<path d="M221.614 216.53H246.159V191.985H221.614V216.53Z" stroke="#F0E0DF" stroke-width="2.2132" stroke-miterlimit="10"/>
<path d="M188.957 216.53H213.502V191.985H188.957V216.53Z" stroke="#F0E0DF" stroke-width="2.2132" stroke-miterlimit="10"/>
<path d="M156.295 216.53H180.84V191.985H156.295V216.53Z" stroke="#F0E0DF" stroke-width="2.2132" stroke-miterlimit="10"/>
<path d="M263.021 153.024H251.076V160.892H263.021V153.024Z" fill="#FFA80A"/>
<path d="M264.86 155.066H249.232C247.455 155.066 246.011 153.622 246.011 151.846C246.011 150.069 247.455 148.625 249.232 148.625H264.86C266.637 148.625 268.081 150.069 268.081 151.846C268.086 153.622 266.642 155.066 264.86 155.066Z" fill="#FFCB2D"/>
<path d="M228.082 164.961L221.346 171.696L226.096 176.446L232.832 169.71L228.082 164.961Z" fill="#FFA80A"/>
<path d="M230.208 164.682L220.8 174.09C219.853 175.037 218.313 175.037 217.366 174.09C216.418 173.142 216.418 171.603 217.366 170.655L226.773 161.248C227.721 160.3 229.26 160.3 230.208 161.248C231.155 162.195 231.155 163.735 230.208 164.682Z" fill="#FFCB2D"/>
<path d="M256.908 238.256C279.207 238.256 297.284 220.179 297.284 197.879C297.284 175.58 279.207 157.503 256.908 157.503C234.608 157.503 216.531 175.58 216.531 197.879C216.531 220.179 234.608 238.256 256.908 238.256Z" fill="#F67B91"/>
<path d="M256.908 236.085C278.008 236.085 295.113 218.98 295.113 197.879C295.113 176.779 278.008 159.674 256.908 159.674C235.807 159.674 218.702 176.779 218.702 197.879C218.702 218.98 235.807 236.085 256.908 236.085Z" fill="#F88AA0"/>
<path d="M256.908 231.77C275.625 231.77 290.798 216.597 290.798 197.879C290.798 179.162 275.625 163.989 256.908 163.989C238.19 163.989 223.017 179.162 223.017 197.879C223.017 216.597 238.19 231.77 256.908 231.77Z" fill="#F6F6F6"/>
<g opacity="0.71">
<path d="M219.83 171.067L271.199 250.664L294.408 230.704L243.586 159.465L219.83 171.067Z" fill="white"/>
<path d="M247.207 151.891L298.576 231.488L301.56 221.511L250.737 150.267L247.207 151.891Z" fill="white"/>
</g>
<path d="M257.077 171.625C256.609 171.625 256.225 171.242 256.225 170.774V168.771C256.225 168.303 256.609 167.92 257.077 167.92C257.545 167.92 257.928 168.303 257.928 168.771V170.774C257.928 171.242 257.551 171.625 257.077 171.625Z" fill="#8054FF"/>
<path d="M257.077 228.251C256.609 228.251 256.225 227.867 256.225 227.399V225.397C256.225 224.923 256.609 224.545 257.077 224.545C257.545 224.545 257.928 224.929 257.928 225.397V227.399C257.928 227.867 257.551 228.251 257.077 228.251Z" fill="#8054FF"/>
<path d="M237.765 179.623C237.546 179.623 237.331 179.538 237.162 179.375L235.746 177.959C235.414 177.626 235.414 177.085 235.746 176.752C236.079 176.419 236.621 176.419 236.953 176.752L238.369 178.168C238.702 178.5 238.702 179.042 238.369 179.375C238.2 179.538 237.985 179.623 237.765 179.623Z" fill="#8054FF"/>
<path d="M277.804 219.661C277.584 219.661 277.37 219.576 277.2 219.413L275.785 217.997C275.452 217.665 275.452 217.123 275.785 216.79C276.118 216.458 276.659 216.458 276.992 216.79L278.407 218.206C278.74 218.539 278.74 219.08 278.407 219.413C278.238 219.582 278.024 219.661 277.804 219.661Z" fill="#8054FF"/>
<path d="M236.35 219.661C236.13 219.661 235.916 219.576 235.746 219.413C235.414 219.08 235.414 218.539 235.746 218.206L237.162 216.79C237.495 216.458 238.036 216.458 238.369 216.79C238.702 217.123 238.702 217.665 238.369 217.997L236.953 219.413C236.784 219.582 236.57 219.661 236.35 219.661Z" fill="#8054FF"/>
<path d="M276.388 179.623C276.168 179.623 275.954 179.538 275.785 179.375C275.452 179.042 275.452 178.5 275.785 178.168L277.2 176.752C277.533 176.419 278.075 176.419 278.407 176.752C278.74 177.085 278.74 177.626 278.407 177.959L276.992 179.375C276.828 179.538 276.608 179.623 276.388 179.623Z" fill="#8054FF"/>
<path d="M229.768 198.934H227.766C227.298 198.934 226.914 198.551 226.914 198.082C226.914 197.614 227.298 197.231 227.766 197.231H229.768C230.236 197.231 230.62 197.614 230.62 198.082C230.62 198.551 230.236 198.934 229.768 198.934Z" fill="#8054FF"/>
<path d="M286.388 198.934H284.386C283.918 198.934 283.534 198.551 283.534 198.082C283.534 197.614 283.918 197.231 284.386 197.231H286.388C286.862 197.231 287.24 197.614 287.24 198.082C287.24 198.551 286.862 198.934 286.388 198.934Z" fill="#8054FF"/>
<path d="M259.113 197.761H255.041V180.102C255.041 178.98 255.954 178.066 257.077 178.066C258.199 178.066 259.113 178.98 259.113 180.102V197.761Z" fill="#8054FF"/>
<path d="M257.077 202.431C259.656 202.431 261.747 200.34 261.747 197.761C261.747 195.182 259.656 193.091 257.077 193.091C254.498 193.091 252.407 195.182 252.407 197.761C252.407 200.34 254.498 202.431 257.077 202.431Z" fill="#2B4183"/>
<path d="M117.69 155.777L125.067 188.32C125.518 191.422 124.323 194.535 121.948 196.436L99.9182 213.666L100.324 197.8L111.328 188.822L99.9182 154.886L117.69 155.777Z" fill="#7041FD"/>
<path d="M89.1797 213.796L99.7885 208.246L95.598 202.335L84.0811 208.601L87.7528 213.26L89.1797 213.796Z" fill="#FA849B"/>
<path d="M86.6586 206.114C86.6586 206.114 88.4521 212.684 93.6127 212.318L95.6036 227.969L80.3756 208.657L86.6586 206.114Z" fill="#181F42"/>
<path d="M95.6049 227.962L80.375 208.649L78.5505 210.088L93.7803 229.4L95.6049 227.962Z" fill="white"/>
<path d="M93.8722 214.36C93.8722 214.36 92.6821 213.976 90.9055 214.061" stroke="white" stroke-width="1.5042" stroke-miterlimit="10" stroke-linecap="round" stroke-linejoin="round"/>
<path d="M94.3121 216.655C94.3121 216.655 93.122 216.271 91.3454 216.356" stroke="white" stroke-width="1.5042" stroke-miterlimit="10" stroke-linecap="round" stroke-linejoin="round"/>
<path d="M94.752 218.945C94.752 218.945 93.562 218.561 91.7854 218.646" stroke="white" stroke-width="1.5042" stroke-miterlimit="10" stroke-linecap="round" stroke-linejoin="round"/>
<path d="M98.6492 232.966L99.7208 221.201L92.4847 220.829L91.4075 233.755H97.3464L98.6492 232.966Z" fill="#FA849B"/>
<path d="M90.4825 230.191C90.4825 230.191 96.7485 232.853 99.6588 228.572L113.183 236.7H88.5875L90.4825 230.191Z" fill="#181F42"/>
<path d="M113.189 236.7H88.5931V239.023H113.189V236.7Z" fill="white"/>
<path d="M101.43 229.633C101.43 229.633 100.392 230.332 99.3599 231.776" stroke="white" stroke-width="1.5042" stroke-miterlimit="10" stroke-linecap="round" stroke-linejoin="round"/>
<path d="M103.5 230.71C103.5 230.71 102.462 231.409 101.43 232.853" stroke="white" stroke-width="1.5042" stroke-miterlimit="10" stroke-linecap="round" stroke-linejoin="round"/>
<path d="M105.575 231.781C105.575 231.781 104.537 232.481 103.505 233.925" stroke="white" stroke-width="1.5042" stroke-miterlimit="10" stroke-linecap="round" stroke-linejoin="round"/>
<path d="M93.3251 154.982L90.0087 223.609H102.597L111.768 155.207L93.3251 154.982Z" fill="#8155FF"/>
<path d="M117.69 155.777L110.059 167.739L108.463 155.478L117.69 155.777Z" fill="#8155FF"/>
<path d="M150.408 144.153L142.889 144.739L144.232 137.187L152.088 137.847L150.408 144.153Z" fill="#FA849B"/>
<path d="M156.736 143.786C154.525 145.681 151.197 145.422 149.302 143.211C147.407 141 147.666 137.672 149.877 135.777C152.088 133.882 155.416 134.142 157.311 136.353C159.206 138.564 158.946 141.891 156.736 143.786Z" fill="#FA849B"/>
<path d="M153.577 134.52C153.577 134.52 152.618 132.314 150.391 133.95C148.157 135.586 146.178 138.924 149.302 143.211L153.577 134.52Z" fill="#FA849B"/>
<path d="M153.577 134.491L159.635 132.969C160.137 132.805 160.695 133.076 160.87 133.567C161.016 133.99 160.825 134.446 160.413 134.638L154.26 137.39L153.577 134.491Z" fill="#FA849B"/>
<path d="M122.016 123.984L131.948 139.703C133.352 142.224 132.568 145.399 130.154 146.978C127.622 148.631 124.227 147.932 122.563 145.405L111.616 130.307C110.025 127.893 110.352 124.695 112.394 122.647C115.253 119.788 120.047 120.459 122.016 123.984Z" fill="#FFCD2E"/>
<path d="M118.908 140.425L119.495 131.824L121.627 144.181L118.908 140.425Z" fill="#F2BB19"/>
<path d="M126.793 138.129L148.659 135.557L148.591 145.546L128.254 148.168C125.044 148.789 122.095 146.262 122.213 142.997C122.309 140.459 124.266 138.377 126.793 138.129Z" fill="#FFCD2E"/>
<path d="M88.9484 167.739C88.9484 167.739 91.3849 167.937 90.9901 165.145C90.5897 162.359 88.5367 158.975 83.19 159.73L88.9484 167.739Z" fill="#FA849B"/>
<path d="M71.3027 190.09H95.848V165.545H71.3027V190.09Z" fill="#FFCD2E"/>
<path d="M72.4385 190.09H96.9837V165.545H72.4385V190.09Z" fill="#FFCD2E"/>
<path d="M79.1123 166.138C78.4693 163.244 80.291 160.379 83.1843 159.73C86.0777 159.087 88.9428 160.909 89.5914 163.803C90.2343 166.696 88.4126 169.561 85.5193 170.21C82.6203 170.858 79.7552 169.031 79.1123 166.138Z" fill="#FA849B"/>
<path d="M89.5914 139.488L89.3489 161.507L79.7045 161.056L79.445 139.663C79.2364 136.403 82.1184 133.798 85.3445 134.334C87.8543 134.74 89.6647 136.945 89.5914 139.488Z" fill="#FFCD2E"/>
<path d="M101.977 130.267L88.6721 143.256C86.5007 145.157 83.2295 145.05 81.1822 143.019C79.039 140.887 79.0164 137.419 81.1427 135.264L93.6296 121.412C95.66 119.354 98.8579 119.004 101.283 120.583C104.673 122.777 105.017 127.611 101.977 130.267Z" fill="#FFCD2E"/>
<path d="M116.827 120.843L97.9048 119.596C96.2015 119.483 93.1559 122.58 93.3364 124.283L93.3251 154.982L117.69 155.777L120.166 124.616C120.279 122.659 118.784 120.972 116.827 120.843Z" fill="#FFCD2E"/>
<path d="M93.3251 138.71L98.8184 133.347L93.3307 147.87L93.3251 138.71Z" fill="#F2BB19"/>
<path d="M113.742 108.141C113.618 109.563 114.639 110.82 116.02 110.944C117.397 111.069 118.615 110.014 118.739 108.593C118.863 107.171 117.842 105.914 116.46 105.79C115.079 105.665 113.866 106.714 113.742 108.141Z" fill="#E6728C"/>
<path d="M112.287 114.216L112.174 120.397C112.14 122.569 110.82 123.702 108.756 123.64C106.991 123.589 105.068 122.698 105.18 120.786L105.818 111.069L112.287 114.216Z" fill="#FA849B"/>
<path d="M112.225 118.322C112.225 118.322 107.183 118.654 105.727 112.952C105.271 111.159 112.315 113.578 112.315 113.578L112.225 118.322Z" fill="#312725"/>
<path d="M110.397 115.981C113.928 116.054 116.895 113.234 117.053 110.262L117.351 104.035C117.549 100.307 114.847 97.0926 111.249 96.7711C107.56 96.4384 103.663 99.202 103.342 103.009L103.167 107.859C103.003 112.23 106.179 115.603 110.397 115.981Z" fill="#F8879D"/>
<path d="M113.381 107.532L113.544 109.568L112.67 109.585" stroke="#312725" stroke-width="0.5974" stroke-miterlimit="10" stroke-linecap="round" stroke-linejoin="round"/>
<path d="M109.551 103.415C109.551 103.415 111.001 103.319 111.001 103.928C111.001 103.928 110.995 104.34 109.732 104.396C108.468 104.453 108.141 104.357 108.034 103.968C107.927 103.573 108.875 103.404 109.551 103.415Z" fill="#312725"/>
<path d="M115.592 104.842C115.592 104.842 114.402 104.695 114.295 105.265C114.295 105.265 114.233 105.649 115.276 105.756C116.319 105.863 116.663 105.733 116.765 105.423C116.883 105.068 116.161 104.859 115.592 104.842Z" fill="#312725"/>
<path d="M114.684 107.154C114.667 107.498 114.926 107.792 115.259 107.814C115.592 107.831 115.879 107.566 115.896 107.222C115.913 106.878 115.654 106.585 115.321 106.562C114.988 106.54 114.701 106.805 114.684 107.154Z" fill="#312725"/>
<path d="M109.371 106.878C109.354 107.222 109.613 107.515 109.946 107.538C110.279 107.555 110.567 107.29 110.583 106.946C110.6 106.602 110.341 106.308 110.008 106.286C109.675 106.263 109.388 106.528 109.371 106.878Z" fill="#312725"/>
<path d="M110.832 110.465C110.865 110.567 111.695 111.43 112.856 111.131" stroke="#312725" stroke-width="0.5974" stroke-miterlimit="10" stroke-linecap="round" stroke-linejoin="round"/>
<path d="M115.896 93.7481C114.543 93.1672 111.091 92.5242 110.33 95.5755C106.895 95.316 101.43 95.3781 100.883 98.356C100.076 102.727 103.178 107.064 103.178 107.064L104.052 107.51C104.052 107.51 106.269 106.353 105.699 101.12C105.699 101.12 113.635 103.032 117.357 101.018C121.085 99.0046 119.957 95.4965 115.896 93.7481Z" fill="#312725"/>
<path d="M99.9239 107.673C99.8054 109.083 100.815 110.324 102.18 110.448C103.545 110.572 104.752 109.529 104.87 108.119C104.989 106.709 103.979 105.468 102.614 105.344C101.249 105.22 100.042 106.263 99.9239 107.673Z" fill="#F8879D"/>
<path d="M103.184 108.587C103.184 108.587 103.342 106.737 101.605 106.872" stroke="#312725" stroke-width="0.5974" stroke-miterlimit="10" stroke-linecap="round" stroke-linejoin="round"/>
<path d="M102.783 119.918L114.108 120.662C114.108 120.662 114.469 124.565 109.433 124.294C103.765 123.995 102.783 119.918 102.783 119.918Z" fill="#FA849B"/>
<path d="M339.584 214.32L328.423 209.12L332.45 202.843L344.587 208.742L341.023 213.705L339.584 214.32Z" fill="#FA849B"/>
<path d="M341.818 206.306C341.818 206.306 340.284 213.141 334.965 213.006L333.657 229.187L348.4 208.624L341.818 206.306Z" fill="#181F42"/>
<path d="M335.583 230.572L350.33 210.005L348.386 208.612L333.64 229.178L335.583 230.572Z" fill="white"/>
<path d="M334.79 215.126C334.79 215.126 335.997 214.681 337.825 214.681" stroke="white" stroke-width="1.5477" stroke-miterlimit="10" stroke-linecap="round" stroke-linejoin="round"/>
<path d="M334.446 217.501C334.446 217.501 335.653 217.055 337.481 217.055" stroke="white" stroke-width="1.5477" stroke-miterlimit="10" stroke-linecap="round" stroke-linejoin="round"/>
<path d="M334.102 219.875C334.102 219.875 335.309 219.43 337.137 219.43" stroke="white" stroke-width="1.5477" stroke-miterlimit="10" stroke-linecap="round" stroke-linejoin="round"/>
<path d="M313.674 146.358C313.674 146.358 306.382 173.582 305.304 178.946C304.233 184.315 302.084 195.048 306.59 198.912C311.097 202.775 328.417 212.047 328.417 212.047L334.79 200.609L324.469 194.405L313.674 146.358Z" fill="#243B77"/>
<path d="M323.51 232.926L321.232 220.823L328.677 220.439L330.955 233.739H324.847L323.51 232.926Z" fill="#FA849B"/>
<path d="M331.327 230.072C331.327 230.072 324.875 232.808 321.886 228.409L307.972 236.773H333.279L331.327 230.072Z" fill="#181F42"/>
<path d="M307.97 239.162H333.276V236.771H307.97V239.162Z" fill="white"/>
<path d="M320.064 229.503C320.064 229.503 321.13 230.219 322.196 231.708" stroke="white" stroke-width="1.5477" stroke-miterlimit="10" stroke-linecap="round" stroke-linejoin="round"/>
<path d="M317.932 230.603C317.932 230.603 318.998 231.319 320.064 232.808" stroke="white" stroke-width="1.5477" stroke-miterlimit="10" stroke-linecap="round" stroke-linejoin="round"/>
<path d="M315.801 231.708C315.801 231.708 316.866 232.424 317.932 233.913" stroke="white" stroke-width="1.5477" stroke-miterlimit="10" stroke-linecap="round" stroke-linejoin="round"/>
<path d="M313.674 146.358L312.952 187.428C312.924 188.901 313.043 190.373 313.302 191.822L319.404 223.496H332.173L328.609 187.778C328.761 181.208 330.938 173.853 331.756 165.839C331.756 165.839 334.26 150.977 327.396 146.437L313.674 146.358Z" fill="#2B4183"/>
<path d="M305.502 140.724L284.628 133.087L282.203 137.154L302.552 147.937C305.942 149.229 309.439 146.319 308.79 142.754C308.491 141.113 307.07 141.282 305.502 140.724Z" fill="#FA849B"/>
<path d="M282.062 129.985C281.695 129.59 281.103 129.404 280.601 129.528C279.919 129.697 279.648 130.363 280.015 130.966L280.314 131.463C279.642 131.717 278.261 131.784 275.728 129.229C275.305 128.801 274.6 128.699 274.166 129.004C273.822 129.241 273.743 129.658 273.929 130.03C273.94 130.047 273.952 130.064 273.957 130.081C273.608 129.968 273.219 129.996 272.942 130.188C272.598 130.425 272.519 130.842 272.705 131.215C272.728 131.265 272.762 131.31 272.79 131.361C272.615 131.378 272.451 131.429 272.31 131.525C271.966 131.762 271.887 132.179 272.074 132.551C272.124 132.658 272.198 132.76 272.288 132.85C272.322 132.884 272.356 132.912 272.389 132.946C272.373 132.957 272.356 132.963 272.344 132.969C272 133.206 271.921 133.623 272.107 133.995C272.158 134.102 272.232 134.204 272.322 134.294C273.021 134.999 273.715 135.586 274.392 136.059C274.392 136.059 274.403 136.071 274.425 136.082C274.747 136.302 275.063 136.494 275.379 136.663C276.839 137.514 279.97 136.798 282.66 137.232L284.758 133.268L282.062 129.985Z" fill="#FA849B"/>
<path d="M274.664 144.196L284.756 121.142L261.702 111.05L251.61 134.104L274.664 144.196Z" fill="#FFCD2E"/>
<path d="M282.406 130.402L280.359 128.017C280.026 127.628 279.428 127.628 279.095 128.017C278.875 128.271 278.83 128.637 278.983 128.936L280.015 130.966C280.015 130.966 279.135 133.73 281.233 136.127L282.406 130.402Z" fill="#FA849B"/>
<path d="M314.751 141.158L307.154 147.227C305.62 148.45 303.483 148.58 301.813 147.548C299.461 146.099 298.023 144.756 299.721 142.574L308.068 134.108L314.751 141.158Z" fill="#FA849B"/>
<path d="M320.64 133.894C320.64 133.894 319.63 138.879 313.635 143.408L304.391 134.683L311.869 126.347L320.64 133.894Z" fill="#7041FD"/>
<path d="M335.061 140.487L351.129 160.757L354.767 158.349C354.767 158.349 345.546 141.18 341.259 135.766C339.009 132.924 334.503 133.668 333.256 137.075C332.687 138.631 333.995 139.206 335.061 140.487Z" fill="#FA849B"/>
<path d="M351.908 164.829C352.038 165.337 352.455 165.771 352.94 165.895C353.6 166.07 354.141 165.624 354.113 164.936L354.085 164.372C354.779 164.462 355.985 165.055 356.961 168.41C357.125 168.974 357.678 169.386 358.191 169.33C358.591 169.285 358.856 168.969 358.873 168.563C358.873 168.546 358.873 168.523 358.873 168.506C359.121 168.766 359.46 168.924 359.787 168.884C360.187 168.839 360.452 168.523 360.469 168.117C360.469 168.066 360.469 168.01 360.464 167.954C360.622 168.021 360.785 168.049 360.949 168.033C361.349 167.987 361.614 167.672 361.631 167.265C361.637 167.153 361.62 167.029 361.586 166.91C361.575 166.865 361.558 166.826 361.547 166.78C361.563 166.78 361.58 166.78 361.597 166.78C361.998 166.735 362.263 166.419 362.28 166.013C362.285 165.901 362.268 165.777 362.235 165.658C361.964 164.727 361.648 163.91 361.287 163.188C361.287 163.188 361.281 163.176 361.27 163.154C361.101 162.816 360.915 162.505 360.723 162.212C359.871 160.808 356.865 159.962 354.767 158.337L351.129 160.746L351.908 164.829Z" fill="#FA849B"/>
<path d="M332.664 127.988L339.974 134.401C341.451 135.698 341.953 137.78 341.231 139.601C340.216 142.173 339.15 143.82 336.702 142.54L326.9 135.811L332.664 127.988Z" fill="#FA849B"/>
<path d="M323.257 123.516C323.257 123.516 329.517 123.623 335.033 128.716L330.053 137.977L320.262 134.582L323.257 123.516Z" fill="#8155FF"/>
<path d="M315.327 124.069C315.327 124.069 309.252 125.749 309.23 133.894C309.219 138.344 313.669 146.358 313.669 146.358L327.391 146.431C327.391 146.431 329.404 140.842 330.611 135.789C331.818 130.735 327.955 125.936 323.251 123.51L315.327 124.069Z" fill="#8155FF"/>
<path d="M330.053 137.977L324.667 134.114L328.823 142.156L330.053 137.977Z" fill="#7041FD"/>
<path d="M318.79 126.674C320.69 126.392 321.367 125.118 321.085 123.211L318.97 112.304L313.229 113.223L314.83 123.742C315.112 125.648 316.883 126.962 318.79 126.674Z" fill="#F8879D"/>
<path d="M317.656 114.464C317.656 114.464 319.517 120.279 314.582 122.258L314.125 118.79L319.196 114.954" fill="#32292A"/>
<path d="M313.398 119.534C316.985 119.196 319.641 116.325 319.342 113.127L318.35 102.648L312.304 102.665C310.076 102.874 307.013 105.829 307.2 107.82L308.254 114.323C308.48 116.652 310.386 119.822 313.398 119.534Z" fill="#F8879D"/>
<path d="M308.536 110.527L307.16 114.035C306.934 114.396 307.245 114.836 307.69 114.791L310.053 114.571L308.536 110.527Z" fill="#F8879D"/>
<path d="M309.738 108.891C309.738 108.891 308.452 108.925 308.497 109.467C308.497 109.467 308.536 109.828 309.659 109.777C310.781 109.726 311.063 109.608 311.125 109.252C311.187 108.903 310.335 108.829 309.738 108.891Z" fill="#312725"/>
<path d="M309.805 111.435C309.85 111.74 309.647 112.022 309.354 112.067C309.061 112.112 308.784 111.898 308.739 111.593C308.694 111.289 308.897 111.007 309.19 110.961C309.489 110.916 309.766 111.131 309.805 111.435Z" fill="#312725"/>
<path d="M309.393 115.518C309.393 115.518 310.29 115.518 310.708 114.464" stroke="#312725" stroke-width="0.5974" stroke-miterlimit="10" stroke-linecap="round" stroke-linejoin="round"/>
<path d="M319.365 122.896L323.251 123.516C323.251 123.516 319.168 130.137 315.146 128.547C310.51 126.714 316.658 123.234 316.658 123.234L319.365 122.896Z" fill="#F8879D"/>
<path d="M317.735 111.001C314.701 110.223 314.12 107.38 314.12 107.38L306.083 108.965C306.083 108.965 304.836 100.956 314.458 99.4501C319.28 98.6944 322.365 101.024 323.99 103.359C325.541 105.581 325.693 108.485 324.61 110.967C323.843 112.727 321.869 115.191 319.715 116.314L318.97 112.304C318.97 112.309 318.271 111.142 317.735 111.001Z" fill="#32292A"/>
<path d="M321.587 110.426C321.576 111.852 320.442 113.003 319.06 112.997C317.679 112.992 316.568 111.83 316.579 110.403C316.59 108.976 317.724 107.826 319.106 107.831C320.493 107.831 321.604 108.999 321.587 110.426Z" fill="#F8879D"/>
<path d="M318.226 111.029C318.226 111.029 318.243 109.157 319.974 109.461" stroke="#312725" stroke-width="0.6026" stroke-miterlimit="10" stroke-linecap="round" stroke-linejoin="round"/>
<path d="M334.384 100.155C334.96 103.556 332.664 106.782 329.263 107.357C325.862 107.933 322.636 105.637 322.061 102.236C321.486 98.8354 323.781 95.6093 327.182 95.034C330.583 94.4587 333.809 96.7542 334.384 100.155Z" fill="#32292A"/>
<path d="M389.211 239.362H30.377" stroke="#281F27" stroke-width="0.7565" stroke-miterlimit="10"/>
<path d="M69.4785 291H66.4536L59.1118 279.034H59.0195C59.0469 279.437 59.0708 279.864 59.0913 280.315C59.1187 280.767 59.1392 281.231 59.1528 281.71C59.1733 282.188 59.1904 282.674 59.2041 283.166V291H56.9688V276.009H59.9731L67.3047 287.893H67.3765C67.3628 287.544 67.3457 287.145 67.3252 286.693C67.3047 286.242 67.2842 285.777 67.2637 285.299C67.25 284.813 67.2397 284.345 67.2329 283.894V276.009H69.4785V291ZM83.2188 285.299C83.2188 286.242 83.0957 287.08 82.8496 287.811C82.6035 288.542 82.2446 289.161 81.7729 289.667C81.3013 290.166 80.7339 290.549 80.0708 290.815C79.4077 291.075 78.6592 291.205 77.8252 291.205C77.0459 291.205 76.3315 291.075 75.6821 290.815C75.0327 290.549 74.4688 290.166 73.9902 289.667C73.5186 289.161 73.1528 288.542 72.8931 287.811C72.6333 287.08 72.5034 286.242 72.5034 285.299C72.5034 284.048 72.7188 282.988 73.1494 282.12C73.5869 281.245 74.209 280.579 75.0156 280.121C75.8223 279.663 76.7827 279.434 77.897 279.434C78.9429 279.434 79.8657 279.663 80.6655 280.121C81.4653 280.579 82.0908 281.245 82.542 282.12C82.9932 282.995 83.2188 284.055 83.2188 285.299ZM74.9849 285.299C74.9849 286.126 75.084 286.833 75.2822 287.421C75.4873 288.009 75.8018 288.46 76.2256 288.775C76.6494 289.083 77.1963 289.236 77.8662 289.236C78.5361 289.236 79.083 289.083 79.5068 288.775C79.9307 288.46 80.2417 288.009 80.4399 287.421C80.6382 286.833 80.7373 286.126 80.7373 285.299C80.7373 284.472 80.6382 283.771 80.4399 283.197C80.2417 282.616 79.9307 282.175 79.5068 281.874C79.083 281.566 78.5327 281.413 77.856 281.413C76.8579 281.413 76.1299 281.748 75.6719 282.417C75.2139 283.087 74.9849 284.048 74.9849 285.299ZM97.1948 279.434C97.3862 279.434 97.5947 279.444 97.8203 279.464C98.0459 279.485 98.2407 279.512 98.4048 279.546L98.1792 281.802C98.0356 281.761 97.8579 281.73 97.646 281.71C97.4409 281.689 97.2563 281.679 97.0923 281.679C96.6616 281.679 96.2515 281.751 95.8618 281.895C95.4722 282.031 95.127 282.243 94.8262 282.53C94.5254 282.811 94.2896 283.163 94.1187 283.586C93.9478 284.01 93.8623 284.502 93.8623 285.063V291H91.4424V279.649H93.3291L93.6572 281.648H93.77C93.9956 281.245 94.2759 280.876 94.6108 280.541C94.9458 280.206 95.3286 279.939 95.7593 279.741C96.1968 279.536 96.6753 279.434 97.1948 279.434ZM105.029 279.434C106.041 279.434 106.909 279.642 107.633 280.059C108.358 280.476 108.915 281.067 109.305 281.833C109.694 282.599 109.889 283.515 109.889 284.581V285.873H102.312C102.339 286.974 102.633 287.821 103.193 288.416C103.761 289.011 104.554 289.308 105.572 289.308C106.297 289.308 106.946 289.24 107.521 289.103C108.102 288.959 108.7 288.751 109.315 288.478V290.436C108.748 290.703 108.17 290.897 107.582 291.021C106.994 291.144 106.29 291.205 105.47 291.205C104.355 291.205 103.375 290.99 102.527 290.559C101.686 290.122 101.026 289.472 100.548 288.611C100.076 287.75 99.8403 286.68 99.8403 285.401C99.8403 284.13 100.056 283.05 100.486 282.161C100.917 281.272 101.522 280.596 102.301 280.131C103.081 279.666 103.99 279.434 105.029 279.434ZM105.029 281.249C104.27 281.249 103.655 281.495 103.183 281.987C102.718 282.479 102.445 283.2 102.363 284.15H107.531C107.524 283.583 107.428 283.081 107.244 282.643C107.066 282.206 106.792 281.864 106.423 281.618C106.061 281.372 105.596 281.249 105.029 281.249ZM125.434 279.434C126.706 279.434 127.663 279.762 128.305 280.418C128.955 281.074 129.279 282.127 129.279 283.576V291H126.87V284.007C126.87 283.146 126.702 282.496 126.367 282.059C126.032 281.621 125.523 281.402 124.839 281.402C123.882 281.402 123.192 281.71 122.768 282.325C122.351 282.934 122.143 283.819 122.143 284.981V291H119.733V284.007C119.733 283.433 119.658 282.954 119.507 282.571C119.364 282.182 119.142 281.891 118.841 281.7C118.54 281.501 118.161 281.402 117.703 281.402C117.04 281.402 116.51 281.553 116.113 281.854C115.724 282.154 115.443 282.599 115.272 283.187C115.102 283.768 115.016 284.482 115.016 285.33V291H112.606V279.649H114.483L114.821 281.177H114.955C115.187 280.78 115.474 280.456 115.816 280.203C116.165 279.943 116.551 279.751 116.975 279.628C117.398 279.499 117.839 279.434 118.297 279.434C119.145 279.434 119.859 279.584 120.44 279.885C121.021 280.179 121.456 280.63 121.743 281.238H121.927C122.283 280.623 122.778 280.168 123.414 279.875C124.05 279.581 124.723 279.434 125.434 279.434ZM135.052 279.649V291H132.643V279.649H135.052ZM133.863 275.301C134.232 275.301 134.55 275.4 134.816 275.599C135.09 275.797 135.227 276.139 135.227 276.624C135.227 277.103 135.09 277.444 134.816 277.649C134.55 277.848 134.232 277.947 133.863 277.947C133.48 277.947 133.155 277.848 132.889 277.649C132.629 277.444 132.499 277.103 132.499 276.624C132.499 276.139 132.629 275.797 132.889 275.599C133.155 275.4 133.48 275.301 133.863 275.301ZM144.424 279.434C145.703 279.434 146.697 279.765 147.408 280.428C148.126 281.084 148.485 282.141 148.485 283.597V291H146.075V284.048C146.075 283.166 145.894 282.506 145.532 282.069C145.169 281.625 144.609 281.402 143.85 281.402C142.75 281.402 141.984 281.741 141.553 282.417C141.129 283.094 140.917 284.075 140.917 285.36V291H138.508V279.649H140.384L140.723 281.187H140.856C141.102 280.791 141.406 280.466 141.769 280.213C142.138 279.953 142.548 279.758 142.999 279.628C143.457 279.499 143.932 279.434 144.424 279.434ZM155.673 291.205C154.319 291.205 153.232 290.713 152.412 289.729C151.599 288.737 151.192 287.278 151.192 285.35C151.192 283.402 151.605 281.929 152.433 280.931C153.267 279.933 154.364 279.434 155.724 279.434C156.298 279.434 156.801 279.512 157.231 279.669C157.662 279.82 158.031 280.025 158.339 280.285C158.653 280.544 158.92 280.835 159.139 281.156H159.251C159.217 280.944 159.176 280.64 159.128 280.244C159.087 279.84 159.067 279.468 159.067 279.126V275.045H161.487V291H159.6L159.169 289.452H159.067C158.862 289.78 158.602 290.077 158.288 290.344C157.98 290.604 157.611 290.812 157.18 290.969C156.756 291.126 156.254 291.205 155.673 291.205ZM156.35 289.247C157.382 289.247 158.11 288.949 158.534 288.354C158.958 287.76 159.176 286.868 159.19 285.678V285.36C159.19 284.089 158.985 283.115 158.575 282.438C158.165 281.754 157.416 281.413 156.329 281.413C155.461 281.413 154.798 281.765 154.34 282.469C153.889 283.166 153.663 284.14 153.663 285.391C153.663 286.642 153.889 287.599 154.34 288.262C154.798 288.918 155.468 289.247 156.35 289.247ZM169.464 279.434C170.476 279.434 171.344 279.642 172.069 280.059C172.793 280.476 173.351 281.067 173.74 281.833C174.13 282.599 174.325 283.515 174.325 284.581V285.873H166.747C166.774 286.974 167.068 287.821 167.629 288.416C168.196 289.011 168.989 289.308 170.008 289.308C170.732 289.308 171.382 289.24 171.956 289.103C172.537 288.959 173.135 288.751 173.75 288.478V290.436C173.183 290.703 172.605 290.897 172.018 291.021C171.43 291.144 170.726 291.205 169.905 291.205C168.791 291.205 167.81 290.99 166.962 290.559C166.122 290.122 165.462 289.472 164.983 288.611C164.512 287.75 164.276 286.68 164.276 285.401C164.276 284.13 164.491 283.05 164.922 282.161C165.353 281.272 165.958 280.596 166.737 280.131C167.516 279.666 168.425 279.434 169.464 279.434ZM169.464 281.249C168.706 281.249 168.09 281.495 167.619 281.987C167.154 282.479 166.88 283.2 166.798 284.15H171.966C171.959 283.583 171.864 283.081 171.679 282.643C171.501 282.206 171.228 281.864 170.859 281.618C170.497 281.372 170.032 281.249 169.464 281.249ZM182.794 279.434C182.986 279.434 183.194 279.444 183.42 279.464C183.646 279.485 183.84 279.512 184.004 279.546L183.779 281.802C183.635 281.761 183.458 281.73 183.246 281.71C183.041 281.689 182.856 281.679 182.692 281.679C182.261 281.679 181.851 281.751 181.461 281.895C181.072 282.031 180.727 282.243 180.426 282.53C180.125 282.811 179.889 283.163 179.718 283.586C179.547 284.01 179.462 284.502 179.462 285.063V291H177.042V279.649H178.929L179.257 281.648H179.37C179.595 281.245 179.875 280.876 180.21 280.541C180.545 280.206 180.928 279.939 181.359 279.741C181.796 279.536 182.275 279.434 182.794 279.434ZM193.735 287.76C193.735 288.505 193.554 289.134 193.192 289.646C192.83 290.159 192.3 290.549 191.603 290.815C190.912 291.075 190.064 291.205 189.06 291.205C188.267 291.205 187.583 291.147 187.009 291.031C186.441 290.921 185.905 290.75 185.399 290.518V288.437C185.939 288.689 186.544 288.908 187.214 289.093C187.891 289.277 188.53 289.37 189.131 289.37C189.924 289.37 190.495 289.247 190.844 289C191.192 288.748 191.367 288.413 191.367 287.996C191.367 287.75 191.295 287.531 191.151 287.339C191.015 287.141 190.755 286.939 190.372 286.734C189.996 286.522 189.442 286.27 188.711 285.976C187.993 285.688 187.388 285.401 186.896 285.114C186.404 284.827 186.031 284.482 185.778 284.079C185.525 283.668 185.399 283.146 185.399 282.51C185.399 281.505 185.795 280.743 186.588 280.223C187.388 279.697 188.444 279.434 189.757 279.434C190.454 279.434 191.11 279.505 191.726 279.649C192.348 279.786 192.956 279.987 193.551 280.254L192.792 282.069C192.279 281.843 191.763 281.659 191.244 281.515C190.731 281.365 190.208 281.29 189.675 281.29C189.053 281.29 188.578 281.385 188.25 281.577C187.928 281.768 187.768 282.042 187.768 282.397C187.768 282.664 187.846 282.889 188.003 283.074C188.161 283.258 188.431 283.443 188.813 283.627C189.203 283.812 189.743 284.041 190.434 284.314C191.11 284.574 191.695 284.848 192.187 285.135C192.686 285.415 193.069 285.76 193.335 286.17C193.602 286.581 193.735 287.11 193.735 287.76ZM207.547 279.434C207.739 279.434 207.947 279.444 208.173 279.464C208.398 279.485 208.593 279.512 208.757 279.546L208.532 281.802C208.388 281.761 208.21 281.73 207.999 281.71C207.793 281.689 207.609 281.679 207.445 281.679C207.014 281.679 206.604 281.751 206.214 281.895C205.825 282.031 205.479 282.243 205.179 282.53C204.878 282.811 204.642 283.163 204.471 283.586C204.3 284.01 204.215 284.502 204.215 285.063V291H201.795V279.649H203.682L204.01 281.648H204.123C204.348 281.245 204.628 280.876 204.963 280.541C205.298 280.206 205.681 279.939 206.112 279.741C206.549 279.536 207.028 279.434 207.547 279.434ZM215.381 279.434C216.393 279.434 217.261 279.642 217.986 280.059C218.71 280.476 219.268 281.067 219.657 281.833C220.047 282.599 220.242 283.515 220.242 284.581V285.873H212.664C212.691 286.974 212.985 287.821 213.546 288.416C214.113 289.011 214.906 289.308 215.925 289.308C216.649 289.308 217.299 289.24 217.873 289.103C218.454 288.959 219.052 288.751 219.667 288.478V290.436C219.1 290.703 218.522 290.897 217.935 291.021C217.347 291.144 216.643 291.205 215.822 291.205C214.708 291.205 213.727 290.99 212.879 290.559C212.039 290.122 211.379 289.472 210.9 288.611C210.429 287.75 210.193 286.68 210.193 285.401C210.193 284.13 210.408 283.05 210.839 282.161C211.27 281.272 211.875 280.596 212.654 280.131C213.433 279.666 214.342 279.434 215.381 279.434ZM215.381 281.249C214.623 281.249 214.007 281.495 213.536 281.987C213.071 282.479 212.797 283.2 212.715 284.15H217.883C217.876 283.583 217.781 283.081 217.596 282.643C217.418 282.206 217.145 281.864 216.776 281.618C216.414 281.372 215.949 281.249 215.381 281.249ZM226.199 296.045C224.661 296.045 223.482 295.768 222.662 295.214C221.841 294.661 221.431 293.885 221.431 292.887C221.431 292.189 221.65 291.598 222.087 291.113C222.525 290.634 223.15 290.303 223.964 290.118C223.656 289.981 223.39 289.77 223.164 289.482C222.945 289.188 222.836 288.864 222.836 288.508C222.836 288.084 222.956 287.722 223.195 287.421C223.434 287.121 223.793 286.83 224.271 286.55C223.677 286.297 223.198 285.887 222.836 285.319C222.48 284.745 222.303 284.072 222.303 283.299C222.303 282.479 222.477 281.782 222.826 281.208C223.174 280.626 223.684 280.186 224.354 279.885C225.023 279.577 225.833 279.423 226.784 279.423C226.989 279.423 227.211 279.437 227.45 279.464C227.696 279.485 227.922 279.512 228.127 279.546C228.339 279.574 228.5 279.604 228.609 279.639H232.536V280.982L230.608 281.341C230.793 281.601 230.94 281.898 231.049 282.233C231.159 282.561 231.213 282.92 231.213 283.31C231.213 284.485 230.807 285.412 229.993 286.088C229.187 286.758 228.072 287.093 226.65 287.093C226.309 287.08 225.977 287.052 225.656 287.011C225.41 287.162 225.222 287.329 225.092 287.514C224.962 287.691 224.897 287.893 224.897 288.119C224.897 288.303 224.962 288.454 225.092 288.57C225.222 288.679 225.413 288.761 225.666 288.816C225.926 288.871 226.24 288.898 226.609 288.898H228.568C229.812 288.898 230.762 289.161 231.418 289.688C232.075 290.214 232.403 290.986 232.403 292.005C232.403 293.297 231.87 294.292 230.803 294.989C229.737 295.693 228.202 296.045 226.199 296.045ZM226.292 294.353C227.132 294.353 227.84 294.271 228.414 294.107C228.988 293.943 229.422 293.707 229.716 293.399C230.01 293.099 230.157 292.74 230.157 292.323C230.157 291.954 230.065 291.67 229.88 291.472C229.696 291.273 229.419 291.137 229.05 291.062C228.681 290.986 228.223 290.949 227.676 290.949H225.892C225.447 290.949 225.054 291.017 224.712 291.154C224.371 291.297 224.104 291.502 223.913 291.769C223.728 292.036 223.636 292.357 223.636 292.733C223.636 293.252 223.865 293.652 224.323 293.933C224.788 294.213 225.444 294.353 226.292 294.353ZM226.763 285.514C227.467 285.514 227.99 285.323 228.332 284.94C228.674 284.55 228.845 284.003 228.845 283.299C228.845 282.534 228.667 281.959 228.312 281.577C227.963 281.194 227.443 281.002 226.753 281.002C226.076 281.002 225.56 281.197 225.205 281.587C224.856 281.977 224.682 282.554 224.682 283.32C224.682 284.01 224.856 284.55 225.205 284.94C225.56 285.323 226.08 285.514 226.763 285.514ZM237.017 279.649V291H234.607V279.649H237.017ZM235.828 275.301C236.197 275.301 236.515 275.4 236.781 275.599C237.055 275.797 237.191 276.139 237.191 276.624C237.191 277.103 237.055 277.444 236.781 277.649C236.515 277.848 236.197 277.947 235.828 277.947C235.445 277.947 235.12 277.848 234.854 277.649C234.594 277.444 234.464 277.103 234.464 276.624C234.464 276.139 234.594 275.797 234.854 275.599C235.12 275.4 235.445 275.301 235.828 275.301ZM248.102 287.76C248.102 288.505 247.92 289.134 247.558 289.646C247.196 290.159 246.666 290.549 245.969 290.815C245.278 291.075 244.431 291.205 243.426 291.205C242.633 291.205 241.949 291.147 241.375 291.031C240.808 290.921 240.271 290.75 239.765 290.518V288.437C240.305 288.689 240.91 288.908 241.58 289.093C242.257 289.277 242.896 289.37 243.498 289.37C244.291 289.37 244.861 289.247 245.21 289C245.559 288.748 245.733 288.413 245.733 287.996C245.733 287.75 245.661 287.531 245.518 287.339C245.381 287.141 245.121 286.939 244.738 286.734C244.362 286.522 243.809 286.27 243.077 285.976C242.359 285.688 241.754 285.401 241.262 285.114C240.77 284.827 240.397 284.482 240.145 284.079C239.892 283.668 239.765 283.146 239.765 282.51C239.765 281.505 240.162 280.743 240.955 280.223C241.754 279.697 242.811 279.434 244.123 279.434C244.82 279.434 245.477 279.505 246.092 279.649C246.714 279.786 247.322 279.987 247.917 280.254L247.158 282.069C246.646 281.843 246.129 281.659 245.61 281.515C245.097 281.365 244.574 281.29 244.041 281.29C243.419 281.29 242.944 281.385 242.616 281.577C242.294 281.768 242.134 282.042 242.134 282.397C242.134 282.664 242.212 282.889 242.37 283.074C242.527 283.258 242.797 283.443 243.18 283.627C243.569 283.812 244.109 284.041 244.8 284.314C245.477 284.574 246.061 284.848 246.553 285.135C247.052 285.415 247.435 285.76 247.702 286.17C247.968 286.581 248.102 287.11 248.102 287.76ZM254.931 289.257C255.245 289.257 255.556 289.229 255.864 289.175C256.171 289.113 256.452 289.042 256.705 288.959V290.785C256.438 290.901 256.093 291 255.669 291.082C255.245 291.164 254.804 291.205 254.346 291.205C253.704 291.205 253.126 291.099 252.613 290.887C252.101 290.668 251.694 290.296 251.393 289.77C251.092 289.243 250.942 288.515 250.942 287.585V281.484H249.394V280.408L251.055 279.557L251.844 277.126H253.362V279.649H256.612V281.484H253.362V287.555C253.362 288.129 253.505 288.556 253.792 288.836C254.08 289.117 254.459 289.257 254.931 289.257ZM263.534 279.434C264.545 279.434 265.414 279.642 266.138 280.059C266.863 280.476 267.42 281.067 267.81 281.833C268.199 282.599 268.394 283.515 268.394 284.581V285.873H260.816C260.844 286.974 261.138 287.821 261.698 288.416C262.266 289.011 263.059 289.308 264.077 289.308C264.802 289.308 265.451 289.24 266.025 289.103C266.606 288.959 267.205 288.751 267.82 288.478V290.436C267.252 290.703 266.675 290.897 266.087 291.021C265.499 291.144 264.795 291.205 263.975 291.205C262.86 291.205 261.879 290.99 261.032 290.559C260.191 290.122 259.531 289.472 259.053 288.611C258.581 287.75 258.345 286.68 258.345 285.401C258.345 284.13 258.561 283.05 258.991 282.161C259.422 281.272 260.027 280.596 260.806 280.131C261.585 279.666 262.495 279.434 263.534 279.434ZM263.534 281.249C262.775 281.249 262.16 281.495 261.688 281.987C261.223 282.479 260.95 283.2 260.868 284.15H266.036C266.029 283.583 265.933 283.081 265.749 282.643C265.571 282.206 265.297 281.864 264.928 281.618C264.566 281.372 264.101 281.249 263.534 281.249ZM276.864 279.434C277.055 279.434 277.264 279.444 277.489 279.464C277.715 279.485 277.91 279.512 278.074 279.546L277.848 281.802C277.705 281.761 277.527 281.73 277.315 281.71C277.11 281.689 276.925 281.679 276.761 281.679C276.331 281.679 275.92 281.751 275.531 281.895C275.141 282.031 274.796 282.243 274.495 282.53C274.194 282.811 273.958 283.163 273.788 283.586C273.617 284.01 273.531 284.502 273.531 285.063V291H271.111V279.649H272.998L273.326 281.648H273.439C273.665 281.245 273.945 280.876 274.28 280.541C274.615 280.206 274.998 279.939 275.428 279.741C275.866 279.536 276.344 279.434 276.864 279.434ZM284.698 279.434C285.709 279.434 286.578 279.642 287.302 280.059C288.027 280.476 288.584 281.067 288.974 281.833C289.363 282.599 289.558 283.515 289.558 284.581V285.873H281.98C282.008 286.974 282.302 287.821 282.862 288.416C283.43 289.011 284.223 289.308 285.241 289.308C285.966 289.308 286.615 289.24 287.189 289.103C287.771 288.959 288.369 288.751 288.984 288.478V290.436C288.417 290.703 287.839 290.897 287.251 291.021C286.663 291.144 285.959 291.205 285.139 291.205C284.024 291.205 283.043 290.99 282.196 290.559C281.355 290.122 280.695 289.472 280.217 288.611C279.745 287.75 279.509 286.68 279.509 285.401C279.509 284.13 279.725 283.05 280.155 282.161C280.586 281.272 281.191 280.596 281.97 280.131C282.75 279.666 283.659 279.434 284.698 279.434ZM284.698 281.249C283.939 281.249 283.324 281.495 282.852 281.987C282.387 282.479 282.114 283.2 282.032 284.15H287.2C287.193 283.583 287.097 283.081 286.913 282.643C286.735 282.206 286.461 281.864 286.092 281.618C285.73 281.372 285.265 281.249 284.698 281.249ZM296.09 291.205C294.736 291.205 293.649 290.713 292.829 289.729C292.016 288.737 291.609 287.278 291.609 285.35C291.609 283.402 292.022 281.929 292.85 280.931C293.684 279.933 294.781 279.434 296.141 279.434C296.715 279.434 297.218 279.512 297.648 279.669C298.079 279.82 298.448 280.025 298.756 280.285C299.07 280.544 299.337 280.835 299.556 281.156H299.668C299.634 280.944 299.593 280.64 299.545 280.244C299.504 279.84 299.484 279.468 299.484 279.126V275.045H301.904V291H300.017L299.586 289.452H299.484C299.279 289.78 299.019 290.077 298.705 290.344C298.397 290.604 298.028 290.812 297.597 290.969C297.173 291.126 296.671 291.205 296.09 291.205ZM296.767 289.247C297.799 289.247 298.527 288.949 298.951 288.354C299.375 287.76 299.593 286.868 299.607 285.678V285.36C299.607 284.089 299.402 283.115 298.992 282.438C298.582 281.754 297.833 281.413 296.746 281.413C295.878 281.413 295.215 281.765 294.757 282.469C294.306 283.166 294.08 284.14 294.08 285.391C294.08 286.642 294.306 287.599 294.757 288.262C295.215 288.918 295.885 289.247 296.767 289.247ZM318.443 287.76C318.443 288.505 318.262 289.134 317.9 289.646C317.538 290.159 317.008 290.549 316.311 290.815C315.62 291.075 314.772 291.205 313.768 291.205C312.975 291.205 312.291 291.147 311.717 291.031C311.149 290.921 310.613 290.75 310.107 290.518V288.437C310.647 288.689 311.252 288.908 311.922 289.093C312.599 289.277 313.238 289.37 313.839 289.37C314.632 289.37 315.203 289.247 315.552 289C315.9 288.748 316.075 288.413 316.075 287.996C316.075 287.75 316.003 287.531 315.859 287.339C315.723 287.141 315.463 286.939 315.08 286.734C314.704 286.522 314.15 286.27 313.419 285.976C312.701 285.688 312.096 285.401 311.604 285.114C311.112 284.827 310.739 284.482 310.486 284.079C310.233 283.668 310.107 283.146 310.107 282.51C310.107 281.505 310.503 280.743 311.296 280.223C312.096 279.697 313.152 279.434 314.465 279.434C315.162 279.434 315.818 279.505 316.434 279.649C317.056 279.786 317.664 279.987 318.259 280.254L317.5 282.069C316.987 281.843 316.471 281.659 315.952 281.515C315.439 281.365 314.916 281.29 314.383 281.29C313.761 281.29 313.286 281.385 312.958 281.577C312.636 281.768 312.476 282.042 312.476 282.397C312.476 282.664 312.554 282.889 312.711 283.074C312.869 283.258 313.139 283.443 313.521 283.627C313.911 283.812 314.451 284.041 315.142 284.314C315.818 284.574 316.403 284.848 316.895 285.135C317.394 285.415 317.777 285.76 318.043 286.17C318.31 286.581 318.443 287.11 318.443 287.76ZM331.097 285.299C331.097 286.242 330.974 287.08 330.728 287.811C330.481 288.542 330.123 289.161 329.651 289.667C329.179 290.166 328.612 290.549 327.949 290.815C327.286 291.075 326.537 291.205 325.703 291.205C324.924 291.205 324.209 291.075 323.56 290.815C322.911 290.549 322.347 290.166 321.868 289.667C321.396 289.161 321.031 288.542 320.771 287.811C320.511 287.08 320.381 286.242 320.381 285.299C320.381 284.048 320.597 282.988 321.027 282.12C321.465 281.245 322.087 280.579 322.894 280.121C323.7 279.663 324.661 279.434 325.775 279.434C326.821 279.434 327.744 279.663 328.543 280.121C329.343 280.579 329.969 281.245 330.42 282.12C330.871 282.995 331.097 284.055 331.097 285.299ZM322.863 285.299C322.863 286.126 322.962 286.833 323.16 287.421C323.365 288.009 323.68 288.46 324.104 288.775C324.527 289.083 325.074 289.236 325.744 289.236C326.414 289.236 326.961 289.083 327.385 288.775C327.809 288.46 328.12 288.009 328.318 287.421C328.516 286.833 328.615 286.126 328.615 285.299C328.615 284.472 328.516 283.771 328.318 283.197C328.12 282.616 327.809 282.175 327.385 281.874C326.961 281.566 326.411 281.413 325.734 281.413C324.736 281.413 324.008 281.748 323.55 282.417C323.092 283.087 322.863 284.048 322.863 285.299ZM344.991 281.484H342.232V291H339.823V281.484H337.967V280.326L339.823 279.618V278.829C339.823 277.865 339.973 277.099 340.274 276.532C340.582 275.964 341.019 275.558 341.586 275.312C342.161 275.059 342.844 274.932 343.637 274.932C344.157 274.932 344.632 274.977 345.062 275.065C345.493 275.147 345.855 275.243 346.149 275.353L345.524 277.178C345.292 277.103 345.032 277.034 344.745 276.973C344.458 276.904 344.15 276.87 343.822 276.87C343.275 276.87 342.872 277.041 342.612 277.383C342.359 277.725 342.232 278.224 342.232 278.88V279.649H344.991V281.484ZM351.379 279.434C352.814 279.434 353.898 279.751 354.629 280.387C355.368 281.023 355.737 282.014 355.737 283.361V291H354.024L353.563 289.39H353.481C353.16 289.8 352.828 290.139 352.486 290.405C352.145 290.672 351.748 290.87 351.297 291C350.853 291.137 350.309 291.205 349.667 291.205C348.99 291.205 348.385 291.082 347.852 290.836C347.318 290.583 346.898 290.2 346.59 289.688C346.283 289.175 346.129 288.525 346.129 287.739C346.129 286.57 346.563 285.692 347.431 285.104C348.306 284.516 349.625 284.191 351.389 284.13L353.358 284.058V283.463C353.358 282.677 353.173 282.117 352.804 281.782C352.442 281.447 351.929 281.279 351.266 281.279C350.699 281.279 350.148 281.361 349.615 281.525C349.082 281.689 348.562 281.891 348.057 282.13L347.277 280.428C347.831 280.134 348.46 279.895 349.164 279.71C349.875 279.526 350.613 279.434 351.379 279.434ZM353.348 285.576L351.881 285.627C350.678 285.668 349.834 285.873 349.349 286.242C348.863 286.611 348.621 287.117 348.621 287.76C348.621 288.32 348.788 288.73 349.123 288.99C349.458 289.243 349.899 289.37 350.446 289.37C351.28 289.37 351.97 289.134 352.517 288.662C353.071 288.184 353.348 287.483 353.348 286.56V285.576ZM364.863 279.434C365.054 279.434 365.263 279.444 365.488 279.464C365.714 279.485 365.909 279.512 366.073 279.546L365.847 281.802C365.704 281.761 365.526 281.73 365.314 281.71C365.109 281.689 364.924 281.679 364.76 281.679C364.33 281.679 363.919 281.751 363.53 281.895C363.14 282.031 362.795 282.243 362.494 282.53C362.193 282.811 361.958 283.163 361.787 283.586C361.616 284.01 361.53 284.502 361.53 285.063V291H359.11V279.649H360.997L361.325 281.648H361.438C361.664 281.245 361.944 280.876 362.279 280.541C362.614 280.206 362.997 279.939 363.427 279.741C363.865 279.536 364.343 279.434 364.863 279.434Z" fill="#767A7B"/>
</svg>
