<svg width="39" height="43" viewBox="0 0 39 43" fill="none" xmlns="http://www.w3.org/2000/svg">
<path d="M38.9377 12.2603L36.272 7.13199L28.3204 11.6402V9.94667C28.3204 7.20356 27.3862 4.86598 25.5407 2.91005C23.6952 0.977963 21.4397 0 18.7967 0C16.1994 0 13.9665 0.977963 12.121 2.91005C10.2527 4.84212 9.34135 7.20355 9.34135 9.97056V22.4216L0 27.717L2.66568 32.8454L9.31856 29.0527V32.6544C9.31856 35.3975 10.2299 37.7352 12.0754 39.6911C13.9209 41.6471 16.1538 42.6011 18.7967 42.6011C21.4169 42.6011 23.6496 41.6232 25.5179 39.6911C27.3862 37.7591 28.2976 35.3975 28.2976 32.6307V18.295L38.9377 12.2603ZM15.1969 9.8274C15.1969 8.82555 15.5386 7.9907 16.2222 7.29897C16.9056 6.60723 17.7031 6.24945 18.6601 6.24945C19.617 6.24945 20.4144 6.60723 21.0751 7.29897C21.7359 7.9907 22.0777 8.84934 22.0777 9.8274V15.1943L15.1969 19.0823V9.8274ZM22.0777 32.6068C22.0777 33.6086 21.7359 34.4435 21.0751 35.1353C20.4144 35.827 19.5942 36.1847 18.6601 36.1847C17.7031 36.1847 16.9056 35.827 16.2222 35.1353C15.5386 34.4435 15.1969 33.5847 15.1969 32.6068V25.7372L22.0777 21.8254V32.6068Z" fill="#3BC6FB"/>
</svg>
